<svg xmlns="http://www.w3.org/2000/svg" xmlns:xlink="http://www.w3.org/1999/xlink" width="300" height="300" x="0" y="0" fill="#000" version="1.1" viewBox="0 0 22 22"><title>ease-default</title><desc>Created with Sketch.</desc><g fill="none" fill-rule="evenodd" stroke="none" stroke-width="1"><g fill="#000"><path d="M2.37676901,20.9319028 C3.58297985,20.4660459 4.44840448,19.3329696 5.43148534,17.3122394 C5.71354233,16.7324691 7.45648026,12.7371243 8.06596742,11.5224396 C10.8978945,5.87851636 14.3069533,3.03234286 19.9872837,3.03234286 C20.5465915,3.03234286 21,2.57738741 21,2.01617143 C21,1.45495545 20.5465915,1 19.9872837,1 C13.4086179,1 9.39798276,4.34842084 6.25688902,10.6085015 C5.61636586,11.8850399 3.86670955,15.8957852 3.61134361,16.4206918 C2.84199228,18.0020993 2.22183932,18.8140483 1.64920926,19.0352067 C1.12723197,19.2368022 0.866955565,19.8248176 1.06786564,20.3485758 C1.26877572,20.8723339 1.85479172,21.1334984 2.37676901,20.9319028 L2.37676901,20.9319028 Z"/></g></g></svg>