<svg xmlns="http://www.w3.org/2000/svg" xmlns:svg="http://www.w3.org/2000/svg" id="svg12" width="300" height="300" x="0" y="0" fill="#000" version="1.1" viewBox="0 0 12 12"><title id="title2">fade-out</title><desc id="desc4">Created with Sketch.</desc><g id="g10" fill="none" fill-rule="evenodd" stroke="none" stroke-width="1" style="fill:#e6e6e6"><g id="g8" fill="#000" style="fill:#e6e6e6"><path id="path6" d="M9.63895121,11 L8.97732372,11 L8.97732372,8.14778382 C9.21638642,8.32337314 9.44076123,8.4834648 9.63895121,8.62233825 L9.63895121,11 L9.63895121,11 Z M10.3005787,10.9911346 C10.4594838,10.963987 10.5603894,10.9420751 10.6857298,10.8583531 C11.1322678,10.5600848 11.143442,9.33531566 10.4550596,9.17685045 C10.4550596,9.17685045 10.3996291,9.14093208 10.3005787,9.07497197 L10.3005787,10.9911346 L10.3005787,10.9911346 Z M8.31569622,11 L7.65406873,10.9999999 L7.65406873,7.11849849 C7.87309029,7.30055306 8.09605157,7.47854225 8.31569622,7.64885548 L8.31569622,11 L8.31569622,11 Z M6.33081375,10.9999999 L6.33081375,5.88579886 C6.37629378,5.93375283 6.80251385,6.36748828 6.99244124,6.54206952 L6.99244124,10.9999999 L6.33081375,10.9999999 L6.33081375,10.9999999 Z M4.34593127,10.9999998 L4.34593127,3.77567404 C4.79419508,4.25396328 5.26330373,4.75384933 5.66918625,5.18500894 L5.66918625,10.9999999 L4.34593127,10.9999998 L4.34593127,10.9999998 Z M1.94550595,10.9999997 C1.59151966,10.9952325 1.06327382,10.63537 1.06327382,9.90611 C1.06327382,9.17685004 1,3.34277027 1,2.61351035 C1,1.88593912 1,1.51962047 1.31516865,1.15499049 C1.67491414,0.738787957 2.09841963,1.22143189 2.57584326,1.88425045 C2.57584326,1.88425045 3.05208847,2.39396673 3.68430378,3.06930548 L3.68430378,10.9999998 L1.94550595,10.9999997 L1.94550595,10.9999997 Z" style="fill:#e6e6e6"/></g></g></svg>