<svg xmlns="http://www.w3.org/2000/svg" xmlns:svg="http://www.w3.org/2000/svg" id="svg12" width="300" height="300" x="0" y="0" fill="#000" version="1.1" viewBox="0 0 22 22"><title id="title2">text</title><desc id="desc4">Created with Sketch.</desc><g id="g10" fill="none" fill-rule="evenodd" stroke="none" stroke-width="1" style="fill:#e6e6e6"><g id="g8" fill="#000" style="fill:#e6e6e6"><path id="path6" d="M18,20 L20,20 L20,18 L14,18 L14,20 L16,20 L16,19 L18,19 L18,20 L18,20 L18,20 Z M16,3 L14,3 L14,5 L20,5 L20,3 L18,3 L18,4 L16,4 L16,3 L16,3 L16,3 Z M10,7 L8,7 L5.99975309,7 L4,7 L2,7 L2,11 L4,11 L4,9 L5.99975309,9 L5.99975309,15 L4,15 L4,17 L5.99975309,17 L8,17 L10,17 L10,15 L8,15 L8,9 L10,9 L10,11 L12,11 L12,9 L12,7 L10,7 L10,7 Z M16,5 L18,5 L18,18 L16,18 L16,5 L16,5 Z" style="fill:#e6e6e6"/></g></g></svg>