<svg xmlns="http://www.w3.org/2000/svg" xmlns:svg="http://www.w3.org/2000/svg" id="svg4" width="18" height="20" fill="none" version="1.1" viewBox="0 0 18 20"><metadata id="metadata10"/><path id="path2" fill="#000" fill-rule="evenodd" d="m 1.7965238,0.99565517 c -0.4972965,0 -0.90043457,0.40313803 -0.90043457,0.90043453 V 18.103911 c 0,0.49731 0.40313807,0.900435 0.90043457,0.900435 0.4972919,0 0.9004345,-0.403125 0.9004345,-0.900435 V 1.8960897 c 0,-0.4972965 -0.4031426,-0.90043453 -0.9004345,-0.90043453 z M 11.250366,11.550008 V 2.9964837 c 0,-1.1004552 0.878014,-2.00082853 1.951152,-2.00082853 h 1.951241 c 1.073138,0 1.951152,0.90037333 1.951152,2.00082853 0,1.1004571 -0.878014,2.0008286 -1.951152,2.0008286 h -1.951241 v 9.8540497 c 0,1.99086 -1.356055,3.791639 -3.2682176,4.101749 -2.6633593,0.430138 -4.9267365,-1.910812 -4.47796,-4.651915 0.23414,-1.400626 1.2389979,-2.59109 2.5462938,-3.071292 1.1999821,-0.430228 2.3316388,-0.220066 3.2487318,0.320104 z" clip-rule="evenodd" style="fill:#e6e6e6;stroke-width:.900435"/></svg>