<svg xmlns="http://www.w3.org/2000/svg" xmlns:svg="http://www.w3.org/2000/svg" id="icon" version="1.1" viewBox="0 0 32 32"><metadata id="metadata18"/><defs id="defs4"><style id="style2">.cls-1{fill:none}</style></defs><title id="title6">carousel--horizontal</title><path id="path8" d="M22,26H10a2,2,0,0,1-2-2V8a2,2,0,0,1,2-2H22a2,2,0,0,1,2,2V24A2,2,0,0,1,22,26ZM10,8V24H22V8Z" style="fill:#e6e6e6"/><path id="path10" d="M4,24H0V22H4V10H0V8H4a2,2,0,0,1,2,2V22A2,2,0,0,1,4,24Z" style="fill:#e6e6e6"/><path id="path12" d="M32,24H28a2,2,0,0,1-2-2V10a2,2,0,0,1,2-2h4v2H28V22h4Z" style="fill:#e6e6e6"/><rect id="_Transparent_Rectangle_" width="32" height="32" class="cls-1" data-name="&lt;Transparent Rectangle&gt;"/></svg>