<svg xmlns="http://www.w3.org/2000/svg" xmlns:svg="http://www.w3.org/2000/svg" id="svg4" width="20" height="20" fill="none" version="1.1" viewBox="0 0 20 20"><metadata id="metadata10"/><path id="path2" fill="#000" fill-rule="evenodd" d="M 18.912209,2.8702324 V 17.129768 c 0,0.984442 -0.797999,1.782441 -1.782441,1.782441 H 13.564884 6.4351162 2.8702324 c -0.9844159,0 -1.7824419,-0.797999 -1.7824419,-1.782441 V 2.8702324 c 0,-0.9844159 0.798026,-1.7824419 1.7824419,-1.7824419 h 3.5648838 7.1297678 3.564884 c 0.984442,0 1.782441,0.798026 1.782441,1.7824419 z m -5.347325,0 h 3.564884 V 9.1087791 H 13.564884 Z M 11.782442,10.891221 H 8.2175581 v 6.238547 H 11.782442 Z M 8.2175581,9.1087791 H 11.782442 V 2.8702324 H 8.2175581 Z m -1.7824419,0 H 2.8702324 V 2.8702324 h 3.5648838 z m 0,1.7824419 H 2.8702324 v 6.238547 h 3.5648838 z m 7.1297678,6.238547 v -6.238547 h 3.564884 v 6.238547 z" clip-rule="evenodd" style="fill:#e6e6e6;stroke-width:.891221"/></svg>