<svg xmlns="http://www.w3.org/2000/svg" xmlns:svg="http://www.w3.org/2000/svg" id="svg8" width="16" height="16" version="1.1" viewBox="0 0 4.233 4.233"><defs id="defs2"><marker id="marker1963" orient="auto" refX="0" refY="0" style="overflow:visible"><path id="path1714" d="M 5.77,0.0 L -2.88,5.0 L -2.88,-5.0 L 5.77,0.0 z" style="fill-rule:evenodd;stroke:#b3b3b3;stroke-width:1pt;stroke-opacity:1;fill:#b3b3b3;fill-opacity:1" transform="scale(0.2)"/></marker><marker id="DotS" orient="auto" refX="0" refY="0" style="overflow:visible"><path id="path1633" d="M -2.5,-1.0 C -2.5,1.7600000 -4.7400000,4.0 -7.5,4.0 C -10.260000,4.0 -12.5,1.7600000 -12.5,-1.0 C -12.5,-3.7600000 -10.260000,-6.0 -7.5,-6.0 C -4.7400000,-6.0 -2.5,-3.7600000 -2.5,-1.0 z" style="fill-rule:evenodd;stroke:#000;stroke-width:1pt;stroke-opacity:1;fill:#000;fill-opacity:1" transform="scale(0.2) translate(7.4, 1)"/></marker><marker id="Arrow1Mend" orient="auto" refX="0" refY="0" style="overflow:visible"><path id="path1575" d="M 0.0,0.0 L 5.0,-5.0 L -12.5,0.0 L 5.0,5.0 L 0.0,0.0 z" style="fill-rule:evenodd;stroke:#000;stroke-width:1pt;stroke-opacity:1;fill:#000;fill-opacity:1" transform="scale(0.4) rotate(180) translate(10,0)"/></marker><marker id="TriangleOutM" orient="auto" refX="0" refY="0" style="overflow:visible"><path id="path1711" d="M 5.77,0.0 L -2.88,5.0 L -2.88,-5.0 L 5.77,0.0 z" style="fill-rule:evenodd;stroke:#b3b3b3;stroke-width:1pt;stroke-opacity:1;fill:#b3b3b3;fill-opacity:1" transform="scale(0.4)"/></marker><marker id="SquareS" orient="auto" refX="0" refY="0" style="overflow:visible"><path id="path1642" d="M -5.0,-5.0 L -5.0,5.0 L 5.0,5.0 L 5.0,-5.0 L -5.0,-5.0 z" style="fill-rule:evenodd;stroke:#000;stroke-width:1pt;stroke-opacity:1;fill:#000;fill-opacity:1" transform="scale(0.2)"/></marker><marker id="Arrow1Send" orient="auto" refX="0" refY="0" style="overflow:visible"><path id="path1581" d="M 0.0,0.0 L 5.0,-5.0 L -12.5,0.0 L 5.0,5.0 L 0.0,0.0 z" style="fill-rule:evenodd;stroke:#000;stroke-width:1pt;stroke-opacity:1;fill:#000;fill-opacity:1" transform="scale(0.2) rotate(180) translate(6,0)"/></marker><marker id="TriangleOutS" orient="auto" refX="0" refY="0" style="overflow:visible"><path id="path8315" d="M 5.77,0.0 L -2.88,5.0 L -2.88,-5.0 L 5.77,0.0 z" style="fill-rule:evenodd;stroke:#b3b3b3;stroke-width:1pt;stroke-opacity:1;fill:#b3b3b3;fill-opacity:1" transform="scale(0.2)"/></marker><marker id="TriangleOutL" orient="auto" refX="0" refY="0" style="overflow:visible"><path id="path8309" d="M 5.77,0.0 L -2.88,5.0 L -2.88,-5.0 L 5.77,0.0 z" style="fill-rule:evenodd;stroke:#b3b3b3;stroke-width:1pt;stroke-opacity:1;fill:#b3b3b3;fill-opacity:1" transform="scale(0.8)"/></marker><marker id="marker8471" orient="auto" refX="0" refY="0" style="overflow:visible"><path id="path8469" style="fill-rule:evenodd;stroke-width:.625;stroke-linejoin:round;stroke:#b3b3b3;stroke-opacity:1;fill:#b3b3b3;fill-opacity:1" d="M 8.7185878,4.0337352 L -2.2072895,0.016013256 L 8.7185884,-4.0017078 C 6.9730900,-1.6296469 6.9831476,1.6157441 8.7185878,4.0337352 z" transform="scale(0.6) rotate(180) translate(0,0)"/></marker><marker id="Arrow2Mend" orient="auto" refX="0" refY="0" style="overflow:visible"><path id="path8194" style="fill-rule:evenodd;stroke-width:.625;stroke-linejoin:round;stroke:#b3b3b3;stroke-opacity:1;fill:#b3b3b3;fill-opacity:1" d="M 8.7185878,4.0337352 L -2.2072895,0.016013256 L 8.7185884,-4.0017078 C 6.9730900,-1.6296469 6.9831476,1.6157441 8.7185878,4.0337352 z" transform="scale(0.6) rotate(180) translate(0,0)"/></marker><marker id="TriangleOutM-6" orient="auto" refX="0" refY="0" style="overflow:visible"><path id="path1711-2" d="M 5.77,0 -2.88,5 V -5 Z" style="fill:#b3b3b3;fill-opacity:1;fill-rule:evenodd;stroke:#b3b3b3;stroke-width:1.00000003pt;stroke-opacity:1" transform="scale(0.4)"/></marker><marker id="TriangleOutM-1" orient="auto" refX="0" refY="0" style="overflow:visible"><path id="path1711-27" d="M 5.77,0 -2.88,5 V -5 Z" style="fill:#b3b3b3;fill-opacity:1;fill-rule:evenodd;stroke:#b3b3b3;stroke-width:1.00000003pt;stroke-opacity:1" transform="scale(0.4)"/></marker><marker id="TriangleOutM-6-9" orient="auto" refX="0" refY="0" style="overflow:visible"><path id="path1711-2-3" d="M 5.77,0 -2.88,5 V -5 Z" style="fill:#b3b3b3;fill-opacity:1;fill-rule:evenodd;stroke:#b3b3b3;stroke-width:1.00000003pt;stroke-opacity:1" transform="scale(0.4)"/></marker><marker id="marker1963-0" orient="auto" refX="0" refY="0" style="overflow:visible"><path id="path1714-6" d="M 5.77,0 -2.88,5 V -5 Z" style="fill:#b3b3b3;fill-opacity:1;fill-rule:evenodd;stroke:#b3b3b3;stroke-width:1.00000003pt;stroke-opacity:1" transform="scale(0.2)"/></marker></defs><metadata id="metadata5"/><g id="layer1" transform="translate(0,-292.76667)"><path style="color:#000;font-style:normal;font-variant:normal;font-weight:400;font-stretch:normal;font-size:medium;line-height:normal;font-family:sans-serif;font-variant-ligatures:normal;font-variant-position:normal;font-variant-caps:normal;font-variant-numeric:normal;font-variant-alternates:normal;font-feature-settings:normal;text-indent:0;text-align:start;text-decoration:none;text-decoration-line:none;text-decoration-style:solid;text-decoration-color:#000;letter-spacing:normal;word-spacing:normal;text-transform:none;writing-mode:lr-tb;direction:ltr;text-orientation:mixed;dominant-baseline:auto;baseline-shift:baseline;text-anchor:start;white-space:normal;shape-padding:0;clip-rule:nonzero;display:inline;overflow:visible;visibility:visible;opacity:1;isolation:auto;mix-blend-mode:normal;color-interpolation:sRGB;color-interpolation-filters:linearRGB;solid-color:#000;solid-opacity:1;vector-effect:none;fill:#b3b3b3;fill-opacity:1;fill-rule:nonzero;stroke:none;stroke-width:.453;stroke-linecap:butt;stroke-linejoin:miter;stroke-miterlimit:4;stroke-dasharray:none;stroke-dashoffset:0;stroke-opacity:1;color-rendering:auto;image-rendering:auto;shape-rendering:auto;text-rendering:auto;enable-background:accumulate" id="path7274" d="m -1.9109945,293.347 v 0.47697 c 0.4359062,0.16393 0.7544769,0.60702 0.7544759,1.14722 1.3e-6,0.68348 -0.5071153,1.21904 -1.1208618,1.21904 -0.6137465,0 -1.12293,-0.53556 -1.1229288,-1.21904 -10e-7,-0.53945 0.3189972,-0.9817 0.7544759,-1.14619 v -0.47749 c -0.6956077,0.17773 -1.2076796,0.84411 -1.2076782,1.62368 -1.6e-6,0.91206 0.7001722,1.67018 1.5761311,1.67018 0.8759589,0 1.57406575,-0.75812 1.57406417,-1.67018 1.32e-6,-0.78034 -0.51142797,-1.44727 -1.20767827,-1.62419 z"/><text xml:space="preserve" style="font-style:normal;font-weight:400;font-size:2.0945px;line-height:1.25;font-family:sans-serif;letter-spacing:0;word-spacing:0;fill:#e6e6e6;fill-opacity:1;stroke:#e6e6e6;stroke-width:.0895174;stroke-miterlimit:4;stroke-dasharray:none" id="text2237" x=".237" y="295.679"><tspan id="tspan2235" x=".237" y="295.679" style="fill:#e6e6e6;stroke:#e6e6e6;stroke-width:.0895174;stroke-miterlimit:4;stroke-dasharray:none">Dim</tspan></text></g></svg>