<svg xmlns="http://www.w3.org/2000/svg" xmlns:svg="http://www.w3.org/2000/svg" id="svg4" width="20" height="20" fill="none" version="1.1" viewBox="0 0 20 20"><metadata id="metadata10"/><path id="path2" fill="#A9ABB0" fill-rule="evenodd" d="M 6.1889631,12.45276 12.45276,6.1889631 C 12.114783,5.6170046 11.920871,4.9498477 11.920871,4.237387 c 0,-2.1217365 1.720044,-3.841742 3.841742,-3.841742 2.121698,0 3.841742,1.7200055 3.841742,3.841742 0,2.1217365 -1.720044,3.841742 -3.841742,3.841742 -0.712451,0 -1.379666,-0.1939407 -1.951605,-0.5319084 L 7.5472206,13.811008 c 0.3379677,0.571939 0.5319084,1.239154 0.5319084,1.951605 0,2.121698 -1.7200055,3.841742 -3.841742,3.841742 -2.1217365,0 -3.841742,-1.720044 -3.841742,-3.841742 0,-2.121698 1.7200055,-3.841742 3.841742,-3.841742 0.7124607,0 1.3796176,0.193912 1.9515761,0.531889 z M 4.237387,17.683484 c 1.0608682,0 1.920871,-0.859974 1.920871,-1.920871 0,-1.060897 -0.8600028,-1.920871 -1.920871,-1.920871 -1.0608682,0 -1.920871,0.859974 -1.920871,1.920871 0,1.060897 0.8600028,1.920871 1.920871,1.920871 z M 17.683484,4.237387 c 0,1.0608682 -0.859974,1.920871 -1.920871,1.920871 -1.060897,0 -1.920871,-0.8600028 -1.920871,-1.920871 0,-1.0608682 0.859974,-1.920871 1.920871,-1.920871 1.060897,0 1.920871,0.8600028 1.920871,1.920871 z" clip-rule="evenodd" style="fill:#e6e6e6;stroke-width:.960436"/></svg>