<svg xmlns="http://www.w3.org/2000/svg" xmlns:svg="http://www.w3.org/2000/svg" id="svg4" width="21" height="21" fill="none" version="1.1" viewBox="0 0 21 21"><metadata id="metadata10"/><path id="path2" fill="#000" fill-rule="evenodd" d="M 11.861071,14.808967 19.980005,6.6901001 C 20.540469,6.1296067 20.463177,5.1436152 19.80743,4.4878105 L 16.838908,1.5192509 C 16.183065,0.86345476 15.197112,0.78619573 14.636552,1.3466852 L 6.5176849,9.465581 c -0.5604933,0.560494 -0.4832295,1.546446 0.1725657,2.20229 l 2.9685595,2.96852 c 0.6558429,0.655844 1.6417959,0.733136 2.2022609,0.172576 z m -5.4034018,4.750149 1.7811319,-1.781151 c 0.5937137,-0.593781 0.6557952,-1.719089 0,-2.374837 L 5.2702416,12.434512 c -0.6557952,-0.655748 -1.7811415,-0.593686 -2.3748552,0 l -1.781133,1.781151 c -0.59371281,0.593685 -0.65579704,1.719088 0,2.374836 l 2.9685606,2.968617 c 0.6557951,0.655747 1.7811414,0.593685 2.3748552,0 z" clip-rule="evenodd" style="fill:#e6e6e6;stroke-width:.951877"/></svg>