<svg xmlns="http://www.w3.org/2000/svg" xmlns:svg="http://www.w3.org/2000/svg" id="svg4" width="18" height="20" fill="none" version="1.1" viewBox="0 0 18 20"><metadata id="metadata10"/><path id="path2" fill="#000" d="m 7.9931769,18.949539 1.4543,-5.369723 5.5934621,-1.591049 -5.5934621,-1.093813 -1.4543,-5.8669241 -1.6780386,5.8669241 -5.36972337,1.093813 5.36972337,1.591049 z M 13.027293,9.0056078 13.922246,5.9727075 17.054585,5.0280299 13.922246,4.1827997 13.027293,1.050461 12.132339,4.1827997 9,5.0280299 12.132339,5.9727075 Z m -5.0341161,9.9439312 1.4543,-5.369723 5.5934621,-1.591049 -5.5934621,-1.093813 -1.4543,-5.8669241 -1.6780386,5.8669241 -5.36972337,1.093813 5.36972337,1.591049 z M 13.027293,9.0056078 13.922246,5.9727075 17.054585,5.0280299 13.922246,4.1827997 13.027293,1.050461 12.132339,4.1827997 9,5.0280299 12.132339,5.9727075 Z" style="fill:#e6e6e6;stroke-width:.894954"/></svg>