<svg xmlns="http://www.w3.org/2000/svg" xmlns:svg="http://www.w3.org/2000/svg" id="svg4" width="22" height="17" fill="none" version="1.1" viewBox="0 0 22 17"><metadata id="metadata10"/><path id="path2" fill="#000" fill-rule="evenodd" d="m 8.346597,0.98202489 h 10.613612 c 0.976983,0 1.768935,0.79197891 1.768935,1.76893531 V 14.24904 c 0,0.976983 -0.791952,1.768935 -1.768935,1.768935 H 8.346597 6.5776617 3.0397911 c -0.9769565,0 -1.7689354,-0.791952 -1.7689354,-1.768935 V 2.7509602 c 0,-0.9769564 0.7919789,-1.76893531 1.7689354,-1.76893531 H 6.5776617 Z M 6.5776617,2.7509602 H 3.0397911 v 2.653403 h 3.5378706 z m 1.7689353,2.653403 v -2.653403 h 10.613612 v 2.653403 z M 6.5776617,7.1732985 H 3.0397911 v 2.653403 h 3.5378706 z m 1.7689353,2.653403 v -2.653403 h 10.613612 v 2.653403 z M 6.5776617,11.595637 H 3.0397911 V 14.24904 H 6.5776617 Z M 8.346597,14.24904 v -2.653403 h 10.613612 v 2.653403 z" clip-rule="evenodd" style="fill:#e6e6e6;stroke-width:.884468"/></svg>