<svg xmlns="http://www.w3.org/2000/svg" xmlns:svg="http://www.w3.org/2000/svg" id="svg4" width="20" height="20" fill="none" version="1.1" viewBox="0 0 20 20"><metadata id="metadata10"/><path id="path2" fill="#000" fill-rule="evenodd" d="m 0.95465703,10 c 0,4.995562 4.04973577,9.045343 9.04534297,9.045343 4.995562,0 9.045343,-4.049781 9.045343,-9.045343 C 19.045343,5.0043928 14.995562,0.95465703 10,0.95465703 5.0043928,0.95465703 0.95465703,5.0043928 0.95465703,10 Z M 17.400719,10 c 0,4.087319 -3.3134,7.400719 -7.400719,7.400719 -4.0873101,0 -7.4007368,-3.3134 -7.4007368,-7.400719 0,-4.0873101 3.3134267,-7.4007368 7.4007368,-7.4007368 4.087319,0 7.400719,3.3134267 7.400719,7.4007368 z m -6.575422,2.261336 h 0.821679 V 13.90596 H 8.3577999 V 12.261336 H 9.180103 V 9.9986432 H 8.3577999 V 8.354037 h 2.4674971 z m 0.07924,-5.8794732 c 0,0.4995562 -0.40496,0.9045343 -0.904534,0.9045343 -0.4995562,0 -0.9045343,-0.4049781 -0.9045343,-0.9045343 0,-0.4995562 0.4049781,-0.9045343 0.9045343,-0.9045343 0.499574,0 0.904534,0.4049781 0.904534,0.9045343 z" clip-rule="evenodd" style="fill:#e6e6e6;stroke-width:.904534"/></svg>