<svg xmlns="http://www.w3.org/2000/svg" xmlns:svg="http://www.w3.org/2000/svg" id="svg8" width="16" height="16" version="1.1"><metadata id="metadata14"/><g id="g833" transform="matrix(1,0,0,1.2076396,0,-1.6600786)"><path d="m 1.017,3.995 h 1 v 1 h -1 z m 2,0 h 1 v 1 h -1 z m 8.969,0 h 1 v 1 h -1 z m 2.031,0 h 1 v 1 h -1 z m 0,8 h 1 v 1 h -1 z m -2.031,0 h 1 v 1 h -1 z m -8.969,0 h 1 v 1 h -1 z m -2,0 h 1 v 1 h -1 z m 4,-10 h 6 v 12 h -6 z" style="fill:#ccc;marker:none" id="path2"/><path id="path836" d="m 13.674,6.29 2.267,2.221 -2.228,2.15 c -0.475,0.55 -1.169,0.504 -1.684,-0.011 L 14.246,8.511 11.982,6.294 c 0.513,-0.57 1.226,-0.465 1.692,-0.004 z" style="line-height:normal;font-variant-ligatures:normal;font-variant-position:normal;font-variant-caps:normal;font-variant-numeric:normal;font-variant-alternates:normal;font-feature-settings:normal;text-indent:0;text-align:start;text-decoration:none;text-decoration-line:none;text-decoration-style:solid;text-decoration-color:#000;text-transform:none;text-orientation:mixed;shape-padding:0;isolation:auto;mix-blend-mode:normal;fill:#ccc;marker:none"/></g></svg>