<svg xmlns="http://www.w3.org/2000/svg" xmlns:svg="http://www.w3.org/2000/svg" id="svg4" width="20" height="18" fill="none" version="1.1" viewBox="0 0 20 18"><metadata id="metadata10"/><path id="path2" fill="#000" fill-rule="evenodd" d="M 1.0732008,9.6955568 8.4671441,16.165281 C 9.0647407,16.688125 10,16.263805 10,15.469696 V 2.5302942 C 10,1.7362221 9.0647407,1.3118341 8.4671441,1.8347371 L 1.0732008,8.3044334 c -0.42083249,0.3682274 -0.42083249,1.022896 0,1.3911234 z m 9.2424282,0 7.393938,6.4697242 c 0.597616,0.522844 1.532856,0.09852 1.532856,-0.695585 V 2.5302942 c 0,-0.7940721 -0.93524,-1.2184601 -1.532856,-0.6955571 l -7.393938,6.4696963 c -0.4208355,0.3682274 -0.4208355,1.022896 0,1.3911234 z M 8.1515153,4.5671117 3.0853642,8.9999905 8.1515153,13.432851 Z m 9.2424237,0 V 13.432851 L 12.327797,8.9999905 Z" clip-rule="evenodd" style="fill:#e6e6e6;stroke-width:.924242"/></svg>