<svg xmlns="http://www.w3.org/2000/svg" xmlns:svg="http://www.w3.org/2000/svg" id="svg4" width="20" height="18" fill="none" version="1.1" viewBox="0 0 20 18"><metadata id="metadata10"/><path id="path2" fill="#000" fill-rule="evenodd" d="M 0.64573239,2.4520036 V 15.547987 c 0,0.803718 0.94657701,1.233173 1.55140511,0.704002 L 9.680551,9.7039738 c 0.4259,-0.3726833 0.4259,-1.0352741 0,-1.4079574 L 2.1971375,1.7480296 C 1.5923094,1.2187989 0.64573239,1.6483225 0.64573239,2.4520036 Z M 7.6440429,8.9999904 2.5165857,13.486493 V 4.5134689 Z M 9.9999992,2.4520036 c 0,-0.8036811 0.9465578,-1.2332047 1.5514048,-0.703974 l 7.483414,6.5479868 c 0.4259,0.3726833 0.4259,1.0352741 0,1.4079574 L 11.551404,16.251989 C 10.946557,16.78116 9.9999992,16.351705 9.9999992,15.547987 Z M 11.870853,4.5134689 16.9983,8.9999904 11.870853,13.486493 Z" clip-rule="evenodd" style="fill:#e6e6e6;stroke-width:.935427"/></svg>