<svg xmlns="http://www.w3.org/2000/svg" xmlns:svg="http://www.w3.org/2000/svg" id="svg4" width="20" height="21" fill="none" version="1.1" viewBox="0 0 20 21"><metadata id="metadata10"/><path style="fill:#e6e6e6;stroke-width:.838428" id="path2" fill="#000" fill-rule="evenodd" d="M 8.3231445,10.447473 16.707423,9.0500817 v 3.5935693 c -0.49635,-0.249768 -1.070505,-0.391127 -1.676856,-0.391127 -1.82182,0 -3.353712,1.276506 -3.353712,2.934497 0,1.657907 1.531892,2.934497 3.353712,2.934497 1.821819,0 3.353711,-1.27659 3.353711,-2.934497 V 2.0400539 L 6.6462889,3.9963826 V 13.482078 C 6.1499732,13.23231 5.5757592,13.090952 4.9694333,13.090952 c -1.8218365,0 -3.3537112,1.276505 -3.3537112,2.934496 0,1.657908 1.5318747,2.934498 3.3537112,2.934498 1.8218365,0 3.3537112,-1.27659 3.3537112,-2.934498 z m 0,-1.6999967 V 5.4168973 L 16.707423,4.0195149 v 3.330579 z" clip-rule="evenodd"/></svg>