<svg xmlns="http://www.w3.org/2000/svg" xmlns:svg="http://www.w3.org/2000/svg" id="svg4" width="20" height="20" fill="none" version="1.1" viewBox="0 0 20 20"><metadata id="metadata10"/><path id="path2" fill="#000" fill-rule="evenodd" d="M 17.381268,0.7734145 H 2.6187316 c -1.019141,0 -1.8453171,0.8261761 -1.8453171,1.8453171 v 3.6247287 0.065906 1.9112226 3.5588501 1.911195 0.06588 3.624756 c 0,1.019169 0.8261761,1.845317 1.8453171,1.845317 H 17.381268 c 1.019169,0 1.845317,-0.826148 1.845317,-1.845317 V 13.690634 6.3093658 2.6187316 c 0,-1.019141 -0.826148,-1.8453171 -1.845317,-1.8453171 z M 2.6187316,14.613293 v 2.767975 H 17.381268 v -3.690634 h -5.535951 v 0.06588 c 0,0.856781 -0.641248,0.856781 -1.383988,0.856781 z m 9.2265854,-2.767976 h 5.535951 V 8.1546829 h -5.535951 v 0.065906 c 0,0.8567531 -0.641248,0.8567531 -1.383988,0.8567531 H 2.6187316 v 1.845318 h 7.8425974 c 0.74274,0 1.383988,0 1.383988,0.85678 z m 0,-5.6018567 v 0.065906 h 5.535951 V 2.6187316 H 2.6187316 v 2.7679757 h 7.8425974 c 0.74274,0 1.383988,0 1.383988,0.856753 z" clip-rule="evenodd" style="fill:#e6e6e6;stroke-width:.922659"/></svg>