<svg xmlns="http://www.w3.org/2000/svg" xmlns:svg="http://www.w3.org/2000/svg" id="svg8" width="36" height="36" preserveAspectRatio="xMidYMid meet" version="1.1" viewBox="0 0 36 36"><metadata id="metadata14"/><title id="title2">plugin-solid</title><path id="path4" d="M29.81,16H29V8.83a2,2,0,0,0-2-2H21A5.14,5.14,0,0,0,16.51,2,5,5,0,0,0,11,6.83H4a2,2,0,0,0-2,2V17H4.81A3.13,3.13,0,0,1,8,19.69,3,3,0,0,1,7.22,22,3,3,0,0,1,5,23H2v8.83a2,2,0,0,0,2,2H27a2,2,0,0,0,2-2V26h1a5,5,0,0,0,5-5.51A5.15,5.15,0,0,0,29.81,16Z" class="clr-i-solid clr-i-solid-path-1" style="fill:#e6e6e6"/><rect id="rect6" width="36" height="36" x="0" y="0" fill-opacity="0"/></svg>