<svg xmlns="http://www.w3.org/2000/svg" xmlns:svg="http://www.w3.org/2000/svg" id="svg4" width="22" height="22" fill="none" version="1.1" viewBox="0 0 22 22"><metadata id="metadata10"/><path id="path2" fill="#000" fill-rule="evenodd" d="m 1.3747375,11 c 0,-5.3113948 4.3138677,-9.6252625 9.6252625,-9.6252625 5.311395,0 9.625262,4.3138677 9.625262,9.6252625 0,5.311395 -4.313867,9.625262 -9.625262,9.625262 C 5.6886052,20.625262 1.3747375,16.311395 1.3747375,11 Z M 6.1873688,9.2499523 c 0.7262698,0 1.3125358,0.586266 1.3125358,1.3125357 0,0.72627 -0.586266,1.312536 -1.3125358,1.312536 -0.7262698,0 -1.3125358,-0.586266 -1.3125358,-1.312536 0,-0.7262697 0.586266,-1.3125357 1.3125358,-1.3125357 z M 12.312536,4.874833 c 0.72627,0 1.312536,0.586266 1.312536,1.3125358 0,0.7262698 -0.586266,1.3125358 -1.312536,1.3125358 H 9.6874642 c -0.7262698,0 -1.3125358,-0.586266 -1.3125358,-1.3125358 0,-0.7262698 0.586266,-1.3125358 1.3125358,-1.3125358 z M 6.6248807,14.937607 c 0,-0.726269 0.586266,-1.312535 1.3125358,-1.312535 0.7262698,0 1.3125358,0.586266 1.3125358,1.312535 0,0.72627 -0.586266,1.312536 -1.3125358,1.312536 -0.7262698,0 -1.3125358,-0.586266 -1.3125358,-1.312536 z m 7.8752143,-4.375119 c 0,-0.7262697 0.586266,-1.3125357 1.312536,-1.3125357 0.72627,0 1.312536,0.586266 1.312536,1.3125357 0,0.72627 -0.586266,1.312536 -1.312536,1.312536 -0.72627,0 -1.312536,-0.586266 -1.312536,-1.312536 z m -1.750047,4.375119 c 0,-0.726269 0.586266,-1.312535 1.312536,-1.312535 0.726269,0 1.312535,0.586266 1.312535,1.312535 0,0.72627 -0.586266,1.312536 -1.312535,1.312536 -0.72627,0 -1.312536,-0.586266 -1.312536,-1.312536 z" clip-rule="evenodd" style="fill:#e6e6e6;stroke-width:.875024"/></svg>