<svg xmlns="http://www.w3.org/2000/svg" xmlns:svg="http://www.w3.org/2000/svg" id="svg4" width="19" height="19" fill="none" version="1.1" viewBox="0 0 19 19"><metadata id="metadata10"/><path id="path2" fill="#000" fill-rule="evenodd" d="M 16.287365,3.6176169 V 14.929892 c 0.999643,0 1.809964,-0.810321 1.809964,-1.809964 V 2.7126349 c 0,-0.999616 -0.810321,-1.809964 -1.809964,-1.809964 H 5.427581 c -0.999616,0 -1.8099641,0.810348 -1.8099641,1.809964 H 15.382383 c 0.499822,0 0.904982,0.4051786 0.904982,0.904982 z m -13.3161677,0 H 13.313866 c 1.142449,0 2.068517,0.9261134 2.068517,2.0685265 V 16.028812 c 0,1.142449 -0.926068,2.068517 -2.068517,2.068517 H 2.9711973 c -1.1424131,0 -2.0685264,-0.926068 -2.0685264,-2.068517 V 5.6861434 c 0,-1.1424131 0.9261133,-2.0685265 2.0685264,-2.0685265 z M 2.7126349,5.427581 V 16.287365 H 13.572419 V 5.427581 Z" clip-rule="evenodd" style="fill:#e6e6e6;stroke-width:.904982"/></svg>