<svg xmlns="http://www.w3.org/2000/svg" xmlns:svg="http://www.w3.org/2000/svg" id="icon" width="32" height="32" version="1.1" viewBox="0 0 32 32"><metadata id="metadata18"/><defs id="defs4"><style id="style2">.cls-1{fill:none}</style></defs><title id="title6">roadmap</title><path id="path8" d="M12,30H4a2.0023,2.0023,0,0,1-2-2V24a2.0023,2.0023,0,0,1,2-2h8a2.0023,2.0023,0,0,1,2,2v4A2.0023,2.0023,0,0,1,12,30ZM4,24v4h8V24Z" style="fill:#e6e6e6"/><path id="path10" d="M28,20H12a2.0023,2.0023,0,0,1-2-2V14a2.0023,2.0023,0,0,1,2-2H28a2.0023,2.0023,0,0,1,2,2v4A2.0023,2.0023,0,0,1,28,20ZM12,14v4H28V14Z" style="fill:#e6e6e6"/><path id="path12" d="M16,10H4A2.0023,2.0023,0,0,1,2,8V4A2.0023,2.0023,0,0,1,4,2H16a2.0023,2.0023,0,0,1,2,2V8A2.0023,2.0023,0,0,1,16,10ZM4,4V8H16V4Z" style="fill:#e6e6e6"/><rect id="_Transparent_Rectangle_" width="32" height="32" class="cls-1" data-name="&lt;Transparent Rectangle&gt;"/></svg>