<svg xmlns="http://www.w3.org/2000/svg" xmlns:svg="http://www.w3.org/2000/svg" id="svg4" width="20" height="20" fill="none" version="1.1" viewBox="0 0 20 20"><metadata id="metadata10"/><path style="fill:#e6e6e6;stroke-width:.90048" id="path2" fill="#000" fill-rule="evenodd" d="M 17.203837,10.90048 H 2.7961627 c -0.9946429,0 -1.80095938,0.806317 -1.80095938,1.800959 v 4.502399 c 0,0.994643 0.80631648,1.800959 1.80095938,1.800959 H 17.203837 c 0.99467,0 1.80096,-0.806316 1.80096,-1.800959 v -4.502399 c 0,-0.994642 -0.80629,-1.800959 -1.80096,-1.800959 z M 2.7961627,17.203838 V 12.701439 H 17.203837 v 4.502399 z m 0,-16.20863468 H 13.601919 c 0.99467,0 1.800959,0.80628998 1.800959,1.80095998 v 4.502398 c 0,0.99467 -0.806289,1.800959 -1.800959,1.800959 H 2.7961627 c -0.9946429,0 -1.80095938,-0.806289 -1.80095938,-1.800959 v -4.502398 c 0,-0.99467 0.80631648,-1.80095998 1.80095938,-1.80095998 z m 0,6.30335798 V 2.7961633 H 13.601919 v 4.502398 z" clip-rule="evenodd"/></svg>