<svg xmlns="http://www.w3.org/2000/svg" xmlns:svg="http://www.w3.org/2000/svg" id="svg4" width="22" height="18" fill="none" version="1.1" viewBox="0 0 22 18"><metadata id="metadata10"/><path id="path2" fill="#fff" fill-rule="evenodd" d="m 16.436647,17.154971 c 1.000887,0 1.812216,-0.811329 1.812216,-1.812216 h 0.906108 c 1.000887,0 1.812216,-0.811329 1.812216,-1.812216 V 4.4694606 c 0,-1.0008596 -0.811329,-1.8122158 -1.812216,-1.8122158 h -0.906108 c 0,-1.0008596 -0.811329,-1.81221575 -1.812216,-1.81221575 H 5.5633527 c -1.0008596,0 -1.8122158,0.81135615 -1.8122158,1.81221575 H 2.845029 c -1.0008595,0 -1.8122157,0.8113562 -1.8122157,1.8122158 v 9.0610784 c 0,1.000887 0.8113562,1.812216 1.8122157,1.812216 h 0.9061079 c 0,1.000887 0.8113562,1.812216 1.8122158,1.812216 z m 0,-14.4977262 V 15.342755 H 5.5633527 V 2.6572448 Z M 11,9.1272719 V 4.5885956 L 15.12705,7.3399651 14.121813,8.8478192 12.812216,7.9747571 V 11.26527 c 0,1.316937 -1.264383,2.265269 -2.718324,2.265269 -1.4539134,0 -2.7183235,-0.948332 -2.7183235,-2.265269 C 7.3755685,9.9483325 8.6399786,9 10.093892,9 10.408402,9 10.714123,9.0443812 11,9.1272719 Z M 2.845029,4.4694606 H 3.7511369 V 13.530539 H 2.845029 Z m 15.403834,9.0610784 h 0.906108 V 4.4694606 H 18.248863 Z M 11,11.26527 c 0,0.184302 -0.358275,0.453054 -0.906108,0.453054 -0.5478055,0 -0.9061078,-0.268752 -0.9061078,-0.453054 0,-0.184303 0.3583023,-0.453054 0.9061078,-0.453054 0.547833,0 0.906108,0.268751 0.906108,0.453054 z" clip-rule="evenodd" style="fill:#e6e6e6;stroke-width:.906108"/></svg>