<svg xmlns="http://www.w3.org/2000/svg" xmlns:svg="http://www.w3.org/2000/svg" id="svg8" width="16" height="16" version="1.1" viewBox="0 0 4.233 4.233"><metadata id="metadata5"/><g id="layer1" transform="translate(0,-292.76667)"><g aria-label="S" style="font-style:normal;font-variant:normal;font-weight:700;font-stretch:normal;font-size:5.36697px;line-height:1.25;font-family:Cantarell;-inkscape-font-specification:'Cantarell, Bold';font-variant-ligatures:normal;font-variant-caps:normal;font-variant-numeric:normal;font-feature-settings:normal;text-align:start;letter-spacing:0;word-spacing:0;writing-mode:lr-tb;text-anchor:start;display:inline;fill:#cfcfcd;fill-opacity:1;stroke:none;stroke-width:.140937" id="text1578" transform="matrix(0.79039791,0,0,0.79039791,0.44365775,61.808163)"><path d="m 2.0307952,296.79934 c 0.9123845,0 1.4544482,-0.45083 1.4544482,-1.14853 0,-1.34711 -1.9589432,-0.88019 -1.9589432,-1.63156 0,-0.28445 0.2629814,-0.44546 0.7245406,-0.44546 0.3112842,0 0.6494031,0.059 0.9123845,0.16101 l 0.1985778,-0.54743 c -0.3166511,-0.13954 -0.7030727,-0.22005 -1.0680265,-0.22005 -0.8909167,0 -1.48665008,0.45619 -1.48665008,1.15927 0,1.27197 1.95357628,0.85334 1.95357628,1.61009 0,0.27371 -0.2361466,0.44009 -0.6977058,0.44009 -0.338119,0 -0.7513755,-0.0751 -1.12169628,-0.23078 l -0.19321084,0.55816 c 0.39715562,0.18248 0.85334782,0.29519 1.28270532,0.29519 z" style="font-style:normal;font-variant:normal;font-weight:700;font-stretch:normal;font-size:5.36697px;font-family:Cantarell;-inkscape-font-specification:'Cantarell, Bold';font-variant-ligatures:normal;font-variant-caps:normal;font-variant-numeric:normal;font-feature-settings:normal;text-align:start;writing-mode:lr-tb;text-anchor:start;fill:#cfcfcd;fill-opacity:1;stroke-width:.140937" id="path5510"/></g><path style="fill:#ccc;fill-rule:evenodd;stroke:#ccc;stroke-width:.565;stroke-linecap:butt;stroke-linejoin:miter;stroke-miterlimit:4;stroke-dasharray:none;stroke-opacity:1" id="path832" d="M 0.35015887,296.63033 3.8831745,293.13635"/></g></svg>