<svg xmlns="http://www.w3.org/2000/svg" xmlns:svg="http://www.w3.org/2000/svg" id="svg4" width="16" height="16" version="1.1" viewBox="0 0 16 16"><path id="path2" fill="#222" d="m 3.984375 1 c -1.652344 0 -2.984375 1.332031 -2.984375 2.984375 v 8.03125 c 0 1.652344 1.332031 2.984375 2.984375 2.984375 h 8.03125 c 1.652344 0 2.984375 -1.332031 2.984375 -2.984375 v -8.03125 c 0 -1.652344 -1.332031 -2.984375 -2.984375 -2.984375 z m 0.515625 2 c 0.828125 0 1.5 0.671875 1.5 1.5 s -0.671875 1.5 -1.5 1.5 s -1.5 -0.671875 -1.5 -1.5 s 0.671875 -1.5 1.5 -1.5 z m 3.398438 3.429688 c 0.832031 0 1.5 0.671874 1.5 1.5 c 0 0.828124 -0.667969 1.5 -1.5 1.5 c -0.828126 0 -1.5 -0.671876 -1.5 -1.5 c 0 -0.828126 0.671874 -1.5 1.5 -1.5 z m 3.601562 3.570312 c 0.828125 0 1.5 0.671875 1.5 1.5 s -0.671875 1.5 -1.5 1.5 s -1.5 -0.671875 -1.5 -1.5 s 0.671875 -1.5 1.5 -1.5 z m 0 0" style="fill:#f2f2f2"/></svg>