<svg xmlns="http://www.w3.org/2000/svg" xmlns:svg="http://www.w3.org/2000/svg" id="svg2" width="24" height="24" version="1.1" viewBox="0 0 24 24"><path id="path1" d="m12 16c1.671 0 3-1.331 3-3s-1.329-3-3-3-3 1.331-3 3 1.329 3 3 3z" style="fill:#f2f2f2"/><path id="path2" d="m20.817 11.186c-.12-.583-.297-1.151-.525-1.688-.225-.532-.504-1.046-.83-1.531-.324-.479-.693-.926-1.098-1.329-.404-.406-.853-.776-1.332-1.101-.483-.326-.998-.604-1.528-.829-.538-.229-1.106-.405-1.691-.526-.6-.123-1.219-.182-1.838-.18v-2.002l-3.975 3 3.975 3v-1.998c.484-.002.968.044 1.435.14.454.094.896.231 1.314.409.413.174.813.392 1.188.644.373.252.722.54 1.038.857.315.314.604.663.854 1.035.254.376.471.776.646 1.191.178.417.314.859.408 1.311.094.459.142.934.142 1.411s-.048.952-.142 1.41c-.094.454-.23.896-.408 1.315-.175.413-.392.813-.644 1.188-.253.373-.542.722-.858 1.039-.315.316-.663.603-1.036.854-.372.251-.771.468-1.189.645-.417.177-.858.314-1.311.408-.92.188-1.906.188-2.822 0-.454-.094-.896-.231-1.314-.409-.416-.176-.815-.393-1.189-.645-.371-.25-.719-.538-1.035-.854-.315-.316-.604-.665-.855-1.036-.254-.376-.471-.776-.646-1.19-.178-.418-.314-.86-.408-1.312-.095-.461-.143-.936-.143-1.413h-2c0 .611.062 1.221.183 1.814.12.582.297 1.15.525 1.689.225.532.504 1.046.831 1.531.323.477.692.924 1.097 1.329.406.407.854.777 1.331 1.099.479.325.994.604 1.529.83.538.229 1.106.405 1.691.526.592.12 1.202.182 1.813.182s1.221-.062 1.814-.183c.583-.121 1.151-.297 1.688-.525.537-.227 1.052-.506 1.53-.83.478-.322.926-.692 1.331-1.099.405-.405.774-.853 1.1-1.332.325-.483.604-.998.829-1.528.229-.54.405-1.108.525-1.692.121-.59.183-1.2.183-1.811s-.062-1.221-.183-1.814z" style="fill:#f2f2f2"/></svg>