<svg xmlns="http://www.w3.org/2000/svg" xmlns:svg="http://www.w3.org/2000/svg" id="svg4" width="17" height="20" fill="none" version="1.1" viewBox="0 0 17 20"><metadata id="metadata10"/><path style="fill:#e6e6e6" id="path2" fill="#000" fill-rule="evenodd" d="M0.0698024 18.5184C-0.18702 19.1743 0.296602 19.883 1.00096 19.883H8.00355H15.0061C15.7105 19.883 16.1941 19.1743 15.9373 18.5184L8.93471 0.635381C8.60297 -0.211792 7.40413 -0.211795 7.07239 0.635379L3.72663 9.17972L1.86056 4.26631L0 5L2.64068 11.953L0.0698024 18.5184ZM3.65899 14.6343L3.08668 16.0958H4.21408L3.65899 14.6343ZM6 15.1656V11.0027C6 9.98774 6.33599 9.99364 6.77135 10.0013L6.77146 10.0013C6.80988 10.002 6.84908 10.0027 6.88889 10.0027H9.11111C9.15092 10.0027 9.19011 10.002 9.22854 10.0013L9.22865 10.0013C9.66401 9.99364 10 9.98774 10 11.0027V16.0958H12.9205L8.00358 3.53916L4.74494 11.861L6 15.1656ZM8.5 11.5027V16.0958H8.00358H7.5V11.5027H8.5Z" clip-rule="evenodd"/></svg>