<svg xmlns="http://www.w3.org/2000/svg" xmlns:svg="http://www.w3.org/2000/svg" id="svg12" width="256" height="256" version="1.1"><metadata id="metadata18"/><path id="path2" style="fill:#e6e6e6;fill-rule:evenodd;stroke-width:1.11416" d="m 74.520522,14.241953 c -9.844681,0 -17.826493,7.983135 -17.826493,17.817789 V 225.94026 c 0,9.84133 7.972899,17.81779 17.826493,17.81779 H 181.47948 c 9.84468,0 17.82649,-7.98314 17.82649,-17.81779 V 32.059742 c 0,-9.841339 -7.9729,-17.817789 -17.82649,-17.817789 z m 8.913246,18.940649 h 89.132462 c 4.91566,0 8.91325,3.994039 8.91325,8.92195 V 215.89545 c 0,4.94128 -3.98979,8.92195 -8.91325,8.92195 H 83.433768 c -4.915655,0 -8.913246,-3.99404 -8.913246,-8.92195 V 42.104552 c 0,-4.941281 3.989792,-8.92195 8.913246,-8.92195 z"/><path id="path6" style="fill:#e6e6e6;fill-rule:evenodd;stroke-width:1.11416" d="m 128,48.780783 c -14.15312,0 -25.62558,11.722033 -25.62558,26.182661 0,14.460628 11.47246,26.182666 25.62558,26.182666 14.15312,0 25.62558,-11.722038 25.62558,-26.182666 0,-14.460628 -11.47246,-26.182661 -25.62558,-26.182661 z m 0.037,15.223894 c 5.23096,0 9.93818,0.716924 9.93818,10.562719 0,9.845795 -4.74532,10.123151 -9.97517,10.123151 -5.22985,0 -9.90119,-0.277356 -9.90119,-10.123151 0,-9.845795 4.70833,-10.562719 9.93818,-10.562719 z M 128,127.88584 c -19.69048,0 -35.652985,15.96251 -35.652985,35.65299 0,19.69048 15.962505,35.65299 35.652985,35.65299 19.69048,0 35.65299,-15.96251 35.65299,-35.65299 0,-19.69048 -15.96251,-35.65299 -35.65299,-35.65299 z m 0.55708,17.8265 c 9.53717,0 17.26941,7.98069 17.26941,17.82649 0,9.84579 -7.73224,17.82649 -17.26941,17.82649 -9.53718,0 -17.26942,-7.9807 -17.26942,-17.82649 0,-9.8458 7.73224,-17.82649 17.26942,-17.82649 z"/></svg>