<svg xmlns="http://www.w3.org/2000/svg" xmlns:svg="http://www.w3.org/2000/svg" id="svg4" aria-hidden="true" class="svg-inline--fa fa-plug fa-w-12" data-icon="plug" data-prefix="fas" focusable="false" role="img" version="1.1" viewBox="0 0 384 512"><metadata id="metadata10"/><path id="path2" fill="currentColor" d="M256 144V32c0-17.673 14.327-32 32-32s32 14.327 32 32v112h-64zm112 16H16c-8.837 0-16 7.163-16 16v32c0 8.837 7.163 16 16 16h16v32c0 77.406 54.969 141.971 128 156.796V512h64v-99.204c73.031-14.825 128-79.39 128-156.796v-32h16c8.837 0 16-7.163 16-16v-32c0-8.837-7.163-16-16-16zm-240-16V32c0-17.673-14.327-32-32-32S64 14.327 64 32v112h64z" style="fill:#e6e6e6"/></svg>