<svg xmlns="http://www.w3.org/2000/svg" xmlns:svg="http://www.w3.org/2000/svg" id="svg4" aria-hidden="true" class="svg-inline--fa fa-plug fa-w-12" data-icon="plug" data-prefix="fas" focusable="false" role="img" version="1.1" viewBox="0 0 384 512"><metadata id="metadata10"/><path id="path2" d="M 239.72881,172.47458 V 88.949153 c 0,-13.179865 10.68455,-23.864407 23.86441,-23.864407 13.17986,0 23.86441,10.684542 23.86441,23.864407 v 83.525427 z m 83.52543,11.9322 H 60.745763 c -6.590305,0 -11.932204,5.3419 -11.932204,11.9322 v 23.86441 c 0,6.5903 5.341899,11.9322 11.932204,11.9322 H 72.677966 V 256 c 0,57.72651 40.993834,105.87668 95.457624,116.93261 v 73.98264 h 47.72882 V 372.93261 C 270.3282,361.87668 311.32203,313.72651 311.32203,256 v -23.86441 h 11.93221 c 6.5903,0 11.9322,-5.3419 11.9322,-11.9322 v -23.86441 c 0,-6.5903 -5.3419,-11.9322 -11.9322,-11.9322 z M 144.27119,172.47458 V 88.949153 c 0,-13.179865 -10.68455,-23.864407 -23.86441,-23.864407 -13.17986,0 -23.864407,10.684542 -23.864407,23.864407 v 83.525427 z" style="fill:#e6e6e6;stroke-width:.74576271"/></svg>