<svg xmlns="http://www.w3.org/2000/svg" xmlns:svg="http://www.w3.org/2000/svg" id="svg4" width="24" height="24" fill="none" version="1.1" viewBox="0 0 24 24"><metadata id="metadata10"/><path id="path2" fill="#000" fill-rule="evenodd" d="M3 3H21C22.0042 3 23 3.75736 23 5V14H21V5H3V19H12V21H3C1.99585 21 1 20.2426 1 19V5C1 3.75736 1.99585 3 3 3ZM19.5858 20.7071H15V18.7071H19.5858L18.2929 17.4142L19.7071 16L23.4142 19.7071L19.7071 23.4142L18.2929 22L19.5858 20.7071ZM13 17H11V7H13V17ZM14 15H16V9H14V15ZM17 13H19V11H17V13ZM8 15H10V9H8V15ZM7 13H5V11H7V13Z" clip-rule="evenodd" style="fill:#e6e6e6"/></svg>