<svg xmlns="http://www.w3.org/2000/svg" xmlns:svg="http://www.w3.org/2000/svg" id="Layer_1" width="16" height="16" x="0" y="0" version="1.1" viewBox="0 0 16 16" xml:space="preserve"><metadata id="metadata81"/><g style="fill:#f2f2f2" id="g994" transform="matrix(0.94745795,0,0,0.94745795,0.63459287,2.8763764)"><g id="g1010" transform="matrix(1.0638695,0,0,1.0638695,-0.49651267,-0.84092549)"><g id="g4" transform="matrix(0.39296649,0,0,0.39296649,-47.614765,-10.281429)" style="fill:#f2f2f2"><polygon id="polygon2" points="130.9 41.9 139 36.6 139.2 36.9 131.1 42.1" style="fill:#f2f2f2"/></g><g id="g8" transform="matrix(0.39296649,0,0,0.39296649,-47.614765,-10.281429)" style="fill:#f2f2f2"><path id="path6" d="m 137.3,42.7 c -0.3,1.6 -0.9,2.8 -1.6,3.7 l -0.1,-0.1 c 0.2,-0.3 0.5,-0.6 0.7,-1.1 0.4,-0.9 0.6,-1.8 0.6,-2.7 0,-0.7 -0.1,-1.4 -0.4,-2.1 -0.3,-0.8 -0.9,-1.5 -1.6,-2.1 -0.7,-0.6 -1.5,-1 -2.3,-1.1 h -0.2 v -4 h 0.2 c 0.1,0.3 0.1,0.6 0.2,0.8 0.2,0.6 0.6,1.2 1.1,1.7 1.3,1.2 2.2,2.2 2.7,3.1 0.5,0.8 0.7,1.7 0.7,2.7 0.1,0.5 0.1,0.9 0,1.2" style="fill:#f2f2f2"/></g><g id="g12" transform="matrix(1.0976032,0,0,0.33787241,-141.12788,-7.6563877)" style="fill:#f2f2f2"><rect id="rect10" width=".3" height="13.8" x="132.6" y="33.8" style="fill:#f2f2f2"/></g><g id="g16" transform="matrix(0.39296649,0,0,0.39296649,-47.614765,-10.281429)" style="fill:#f2f2f2"><path id="path14" d="m 128.3,48 c 0.2,-0.6 0.6,-1.1 1.3,-1.5 0.6,-0.4 1.3,-0.6 2,-0.6 0.6,0 1,0.1 1.3,0.4 0.3,0.3 0.5,0.6 0.5,1.1 0,0.2 0,0.4 -0.1,0.6 -0.2,0.6 -0.6,1.1 -1.3,1.5 -0.6,0.4 -1.3,0.6 -2,0.6 -0.5,0 -1,-0.2 -1.3,-0.4 -0.3,-0.3 -0.5,-0.6 -0.5,-1.1 0,-0.2 0,-0.4 0.1,-0.6" style="fill:#f2f2f2"/></g><rect style="fill:#f2f2f2;stroke-width:.622962" id="rect18" width=".648" height="9.914" x="12.115" y="-1.608"/><g id="g24" transform="matrix(0.39296649,0,0,0.39296649,-47.614765,-10.281429)" style="fill:#f2f2f2"><path id="path22" d="m 143.6,48 c 0.4,-1.2 1.2,-2.1 2.5,-2.9 1.3,-0.8 2.6,-1.2 3.9,-1.2 1.1,0 2,0.3 2.7,0.8 0.7,0.6 1,1.3 1,2.1 0,0.4 -0.1,0.8 -0.3,1.2 -0.4,1.2 -1.3,2.1 -2.5,2.9 -1.3,0.8 -2.6,1.2 -4,1.2 -1.1,0 -2,-0.3 -2.6,-0.9 -0.7,-0.6 -1,-1.3 -1,-2.1 0,-0.2 0.1,-0.6 0.3,-1.1" style="fill:#f2f2f2"/></g><g id="g52" transform="matrix(0.39296649,0,0,0.39296649,-47.614765,-10.281429)" style="fill:#f2f2f2"><path id="path50" d="m 130.8,56.1 c 3,5.4 14.5,5.4 17.5,0 L 148,55.9 c -2.7,3.6 -14.2,3.6 -16.9,0 z" style="fill:#f2f2f2"/></g></g></g></svg>