<svg xmlns="http://www.w3.org/2000/svg" xmlns:svg="http://www.w3.org/2000/svg" id="svg4" width="24" height="24" fill="none" version="1.1" viewBox="0 0 24 24"><metadata id="metadata10"/><path id="path2" fill="#000" fill-rule="evenodd" d="M4 4H20C21.1046 4 22 5.11634 22 6V18C22 18.8837 21.1046 20 20 20H4C2.89543 20 2 18.8837 2 18V6C2 5.11634 2.89543 4 4 4ZM4 6V18H20V6H4ZM10.3221 14V10H8.62726L7.67667 12.4011L6.70106 10H5V14H6.38837V12.0056L7.07004 14H8.25828L8.93996 12.0056V14H10.3221ZM12.3369 14V10H10.9485V14H12.3369ZM14.8089 10C15.2716 10 15.6761 10.0847 16.0221 10.2542C16.3723 10.4237 16.6413 10.6591 16.8289 10.9605C17.0165 11.2618 17.1103 11.6045 17.1103 11.9887C17.1103 12.3691 17.0165 12.7119 16.8289 13.0169C16.6413 13.322 16.3723 13.5631 16.0221 13.7401C15.6761 13.9134 15.2716 14 14.8089 14H12.964V10H14.8089ZM14.6838 12.8814C14.9965 12.8814 15.2445 12.8041 15.428 12.6497C15.6114 12.4953 15.7032 12.275 15.7032 11.9887C15.7032 11.7024 15.6114 11.4821 15.428 11.3277C15.2445 11.1733 14.9965 11.096 14.6838 11.096H14.3523V12.8814H14.6838ZM19 14V10H17.6116V14H19Z" clip-rule="evenodd" style="fill:#e6e6e6"/></svg>