<svg xmlns="http://www.w3.org/2000/svg" xmlns:svg="http://www.w3.org/2000/svg" id="svg4" width="18" height="18" fill="none" version="1.1" viewBox="0 0 18 18"><metadata id="metadata10"/><path id="path2" fill="#000" fill-rule="evenodd" d="M 8.4824964,12.148878 7.2457504,13.385624 2.8601263,9 7.2457504,4.6143759 8.4824964,5.8511219 6.2195143,8.1228752 H 12.947062 V 9.8771248 H 6.2195143 Z M 15.139874,1.1058767 H 2.8601263 c -0.9736085,0 -1.7542496,0.7894123 -1.7542496,1.7542496 V 6.3686256 H 2.8601263 V 2.8601263 H 15.139874 V 9 h 1.754249 V 2.8601263 c 0,-0.9648373 -0.789412,-1.7542496 -1.754249,-1.7542496 z M 1.1058767,11.631374 h 1.7542496 v 3.5085 h 8.7712477 v 1.754249 H 2.8601263 c -0.9736085,0 -1.7542496,-0.789412 -1.7542496,-1.754249 z m 14.5637803,1.75425 v -2.484017 h -0.950803 l -0.533292,1.491112 -0.547326,-1.491112 h -0.954312 v 2.484017 h 0.778887 v -1.2385 l 0.382426,1.2385 h 0.666615 l 0.382427,-1.2385 v 1.2385 z m 1.130263,0 v -2.484017 h -0.778887 v 2.484017 z m -2.512612,1.024482 c 0.259629,0 0.486541,0.05263 0.680649,0.157882 0.196476,0.105255 0.347342,0.251472 0.452597,0.438563 0.105255,0.18709 0.157882,0.399969 0.157882,0.638547 0,0.236209 -0.05263,0.449087 -0.157882,0.638546 -0.105255,0.189459 -0.256121,0.339185 -0.452597,0.449088 -0.194108,0.107624 -0.42102,0.161391 -0.680649,0.161391 h -1.035007 v -2.484017 z m -0.07017,1.789334 c 0.175425,0 0.314625,-0.04798 0.417512,-0.143848 0.102887,-0.09587 0.154374,-0.232701 0.154374,-0.410494 0,-0.177794 -0.05149,-0.314625 -0.154374,-0.410495 -0.102887,-0.09587 -0.242087,-0.143848 -0.417512,-0.143848 h -0.18595 v 1.108685 z m 2.582782,0.694683 v -2.484017 h -0.778887 v 2.484017 z" clip-rule="evenodd" style="fill:#e6e6e6;stroke-width:.877125"/></svg>